<svg id="Ebene_1" data-name="Ebene 1" xmlns="http://www.w3.org/2000/svg" viewBox="0 0 960 560"><defs><style>.cls-1{fill:#db1b24;}</style></defs><path class="cls-1" d="M174.85-17.7l.37,0A25.33,25.33,0,0,1,202.89,2.12a25.14,25.14,0,0,1-5.61,21.65,1.77,1.77,0,0,0,.87,2.86c3.76,1.1,8.94.95,14.26.23a142.8,142.8,0,0,0,23.49-5.71c.36-.08.72-.14,1.08-.19a12.93,12.93,0,0,1,14.32,10,14.14,14.14,0,0,1-10.72,15.61L215.67,52.1a5.8,5.8,0,0,0-4.59,5.32c-1,18.39,27.41,59.65,27.41,59.65a13.66,13.66,0,0,1-23.88,13.27l-17.79-27.9a4.8,4.8,0,0,0-8.67,1.29l-8.89,31.87a13.71,13.71,0,0,1-11.56,10.68,13.85,13.85,0,0,1-4.66-.18,13.7,13.7,0,0,1-10.49-16.23s15.12-47.74,8.84-65.05a5.83,5.83,0,0,0-5.94-3.75L130,63a14.14,14.14,0,0,1-14.8-11.8,13,13,0,0,1,11.13-13.78l.75-.08a146.75,146.75,0,0,0,21.83-1c6.12-.83,12.13-2.26,15.88-4.72a1.77,1.77,0,0,0,0-3A25.21,25.21,0,0,1,174.85-17.7M187.11,5.49h0a3.49,3.49,0,0,0-1-6.91h-.05a3.49,3.49,0,0,0,1,6.92m-18,3h.05a3.49,3.49,0,0,0-1-6.91h0a3.49,3.49,0,0,0,1,6.91m10.43,8.87A9.21,9.21,0,0,1,172,15a2.08,2.08,0,0,0-1.64-.47,2,2,0,0,0-1.34.74,2.11,2.11,0,0,0,.27,3,13.49,13.49,0,0,0,10.85,3.31l.21,0a13.78,13.78,0,0,0,9.29-5.93l.23-.29a2.12,2.12,0,0,0-2-3.4,2.15,2.15,0,0,0-1.39.8l-.25.33a9.57,9.57,0,0,1-6.55,4.3l-.15,0M185.12,54h.06A4.31,4.31,0,0,0,184,45.49h-.05A4.31,4.31,0,0,0,185.12,54m2.35,15.81h.06a4.31,4.31,0,0,0-1.21-8.54h-.06a4.31,4.31,0,0,0,1.21,8.53m2.36,15.82h.06a4.31,4.31,0,0,0-1.21-8.54h-.06a4.31,4.31,0,0,0,1.21,8.54M174.37-21.19h0A28.51,28.51,0,0,0,155.24-10a28.5,28.5,0,0,0-5.45,21.5,28.71,28.71,0,0,0,10.68,18.37,46.72,46.72,0,0,1-12,2.93,145.73,145.73,0,0,1-21.23,1,2.67,2.67,0,0,0-.4,0l-1,.1a16.45,16.45,0,0,0-14.18,17.55l0,.25a17.7,17.7,0,0,0,18.56,14.8l25.46-2A2.29,2.29,0,0,1,158.07,66c4.82,13.27-4.78,49.82-8.89,62.78a3,3,0,0,0-.08.32,17.19,17.19,0,0,0,33.59,7.32l8.86-31.77a1.2,1.2,0,0,1,1-.92,1.22,1.22,0,0,1,1.25.58l17.73,27.81a17.34,17.34,0,0,0,17.31,8.58,17.18,17.18,0,0,0,12.69-25.37,2.82,2.82,0,0,0-.18-.29c-7.7-11.2-27.54-43.37-26.8-57.46a2.3,2.3,0,0,1,1.83-2.07L241.35,50A17.71,17.71,0,0,0,254.8,30.42c0-.08,0-.17-.05-.25a16.54,16.54,0,0,0-18.24-12.71,12.69,12.69,0,0,0-1.37.25,2.79,2.79,0,0,0-.39.1,139.73,139.73,0,0,1-22.81,5.55,43,43,0,0,1-10.16.38A28.55,28.55,0,0,0,206.34,1.4,28.88,28.88,0,0,0,174.8-21.25l-.43.06Zm10.28,71.73a.78.78,0,0,1-.88-.66.75.75,0,0,1,.14-.58.78.78,0,0,1,.52-.31h0a.78.78,0,1,1,.23,1.55ZM187,66.36a.8.8,0,0,1-.88-.66.78.78,0,0,1,.15-.59.81.81,0,0,1,.51-.3h0a.79.79,0,0,1,.89.66.81.81,0,0,1-.14.58.73.73,0,0,1-.52.3Zm2.36,15.81a.78.78,0,0,1-.88-.66.76.76,0,0,1,.15-.58.73.73,0,0,1,.51-.31h0a.8.8,0,0,1,.89.66.78.78,0,0,1-.66.89Z"/><path class="cls-1" d="M590.19,285.08H566.85l9.47-9.46a1.79,1.79,0,0,0,0-2.5,1.77,1.77,0,0,0-2.5,0l-12,12h-8.28l15.71-15.7a1.77,1.77,0,0,0-2.5-2.5l-18.2,18.2H521.27a17.52,17.52,0,0,0-3.9-9.39l13.08-13.09H556.2a1.77,1.77,0,0,0,0-3.53H534l5.85-5.85h16.92a1.77,1.77,0,1,0,0-3.53H543.36L566.11,227a1.77,1.77,0,0,0-2.5-2.5L540.87,247.2V233.81a1.77,1.77,0,1,0-3.53,0v16.91l-5.85,5.86V234.36a1.77,1.77,0,0,0-3.53,0v25.75l-13.09,13.08a17.52,17.52,0,0,0-9.39-3.9V242l18.2-18.2a1.77,1.77,0,0,0-2.5-2.5L505.48,237V228.7l12-12a1.77,1.77,0,0,0,0-2.5,1.79,1.79,0,0,0-2.5,0l-9.46,9.47V200.37a1.77,1.77,0,0,0-3.53,0v23.34l-9.47-9.47a1.77,1.77,0,0,0-2.5,2.5l12,12V237l-15.71-15.71a1.77,1.77,0,0,0-2.5,0,1.79,1.79,0,0,0,0,2.5L502,242v27.32a17.55,17.55,0,0,0-9.4,3.9l-13.08-13.08V234.36a1.77,1.77,0,0,0-3.53,0v22.22l-5.86-5.86V233.81a1.77,1.77,0,1,0-3.53,0V247.2l-22.74-22.75a1.76,1.76,0,1,0-2.49,2.5l22.74,22.74H450.67a1.77,1.77,0,0,0,0,3.53h16.92l5.85,5.85H451.23a1.77,1.77,0,1,0,0,3.53H477l13.08,13.09a17.6,17.6,0,0,0-3.9,9.39H458.83l-18.2-18.2a1.76,1.76,0,1,0-2.49,2.5l15.7,15.7h-8.27l-12-12a1.76,1.76,0,1,0-2.49,2.5l9.46,9.46H417.24a1.77,1.77,0,1,0,0,3.53h23.33l-9.46,9.47a1.76,1.76,0,0,0,2.49,2.5l12-12h8.27l-15.7,15.71a1.76,1.76,0,0,0,2.49,2.5l18.2-18.21h27.32a17.63,17.63,0,0,0,3.9,9.4L477,311.09H451.23a1.77,1.77,0,1,0,0,3.53h22.21l-5.85,5.86H450.67a1.77,1.77,0,0,0,0,3.53h13.39l-22.74,22.74a1.76,1.76,0,0,0,2.49,2.49l22.74-22.74v13.39a1.77,1.77,0,0,0,3.53,0V323l5.86-5.85v22.21a1.77,1.77,0,1,0,3.53,0V313.59l13.08-13.08a17.63,17.63,0,0,0,9.4,3.9v27.32l-18.21,18.2a1.76,1.76,0,0,0,2.5,2.49L502,336.72V345l-12,12a1.76,1.76,0,0,0,2.5,2.49L502,350v23.33a1.77,1.77,0,1,0,3.53,0V350l9.46,9.46a1.76,1.76,0,0,0,2.5-2.49l-12-12v-8.27l15.7,15.7a1.76,1.76,0,0,0,2.5-2.49l-18.2-18.2V304.41a17.6,17.6,0,0,0,9.39-3.9L528,313.59v25.74a1.77,1.77,0,1,0,3.53,0V317.12l5.85,5.85v16.92a1.77,1.77,0,0,0,3.53,0V326.5l22.74,22.74a1.76,1.76,0,0,0,2.5-2.49L543.36,324h13.39a1.77,1.77,0,1,0,0-3.53H539.83L534,314.62H556.2a1.77,1.77,0,0,0,0-3.53H530.45L517.37,298a17.55,17.55,0,0,0,3.9-9.4h27.32l18.2,18.21a1.79,1.79,0,0,0,2.5,0,1.77,1.77,0,0,0,0-2.5l-15.71-15.71h8.28l12,12a1.77,1.77,0,0,0,2.5-2.5l-9.47-9.47h23.34a1.77,1.77,0,0,0,0-3.53ZM503.71,301a14.12,14.12,0,1,1,14.12-14.12A14.14,14.14,0,0,1,503.71,301Z"/><path class="cls-1" d="M169.41,342a1.77,1.77,0,0,0-.95-1.43,91.38,91.38,0,0,1-27-21.64A100.83,100.83,0,0,0,161.44,307a1.77,1.77,0,0,0-.25-3c-11.39-6-21.24-15.36-29.31-27.85a61.14,61.14,0,0,0,13.17-8.54,1.76,1.76,0,0,0-.26-2.88c-7-4-13-10.48-17.89-19.24a36.34,36.34,0,0,0,7.61-5.76,1.76,1.76,0,0,0-.27-2.75c-6.47-4.21-11.17-12.72-14-25.29a1.76,1.76,0,0,0-3.32-.36c-5.43,11.68-11.85,19-19.08,21.7a1.74,1.74,0,0,0-1,1.1,1.78,1.78,0,0,0,.2,1.52,36.35,36.35,0,0,0,6.19,7.26c-6.61,7.52-13.88,12.54-21.6,14.95a1.76,1.76,0,0,0-.87,2.76,61.47,61.47,0,0,0,11,11.17c-10.56,10.46-22.2,17.49-34.61,20.9a1.76,1.76,0,0,0-.88,2.84,100.94,100.94,0,0,0,16.91,15.9,91.13,91.13,0,0,1-31,15.34A1.79,1.79,0,0,0,41,328a1.77,1.77,0,0,0,.36,1.68c17.72,20.27,37.81,31.87,58.89,34.65l-2.31,21.22a1.77,1.77,0,0,0,3.51.38l2.31-21.21c21.19,1.8,43.3-5.21,65-21.19A1.78,1.78,0,0,0,169.41,342Zm-67,19.13h-.06c-20.41-2.23-39.39-12.87-56.47-31.64a97.18,97.18,0,0,0,31.39-16.63,1.77,1.77,0,0,0,.68-1.44,1.79,1.79,0,0,0-.76-1.41,93.59,93.59,0,0,1-16.4-14.63c12.58-4,24.33-11.54,35-22.49a1.77,1.77,0,0,0,.49-1.4,1.79,1.79,0,0,0-.74-1.28,54,54,0,0,1-10.39-9.74c7.91-3,15.31-8.58,22-16.56a1.8,1.8,0,0,0,.4-1.32,1.78,1.78,0,0,0-.68-1.21,29.46,29.46,0,0,1-5.62-5.86c6.31-3.09,12-9.23,16.82-18.31,2.8,9.91,7,17.12,12.49,21.5a29.5,29.5,0,0,1-6.76,4.51,1.82,1.82,0,0,0-.92,1,1.79,1.79,0,0,0,.11,1.38c4.82,9.23,10.84,16.25,17.93,20.9a54.31,54.31,0,0,1-12.25,7.27,1.77,1.77,0,0,0-.82,2.56c8,13,17.89,22.89,29.32,29.49a94.08,94.08,0,0,1-19.17,10.76,1.76,1.76,0,0,0-.68,2.76,96.84,96.84,0,0,0,27.08,23C143.63,357,122.8,363.31,102.39,361.1Z"/><path class="cls-1" d="M965.74,21.41,960.58,8.74a1.76,1.76,0,0,0-2.3-1l-18.12,7.39L927.33-16.29a1.75,1.75,0,0,0-2.3-1,1.76,1.76,0,0,0-1,2.3l12.82,31.45-18.12,7.39a1.76,1.76,0,0,0-1,2.3L923,38.85a67.95,67.95,0,1,0,42.77-17.44Zm-44,5.07L958,11.7l4.07,10A67.84,67.84,0,0,0,925.8,36.44ZM992.8,149a64.42,64.42,0,1,1,35.33-84A64.49,64.49,0,0,1,992.8,149Z"/><path class="cls-1" d="M1000.46,74.25,991.33,78l3.49-8.28a1.77,1.77,0,0,0-3.26-1.36l-4.85,11.52-9.27,3.78a10.62,10.62,0,0,0-3.32-3.35l9.54-22.7a1.78,1.78,0,1,0-3.25-1.37l-9.55,22.7a10.59,10.59,0,0,0-4.72,0l-3.78-9.27,4.85-11.53A1.76,1.76,0,0,0,964,56.72L960.48,65l-3.73-9.13a1.76,1.76,0,1,0-3.26,1.34l3.72,9.13-8.28-3.49a1.77,1.77,0,0,0-1.37,3.26L959.09,71l3.78,9.27a10.52,10.52,0,0,0-3.35,3.32L936.82,74a1.78,1.78,0,1,0-1.37,3.26l22.7,9.55a10.59,10.59,0,0,0,0,4.72l-9.28,3.78-11.52-4.85A1.76,1.76,0,0,0,936,93.7l8.27,3.48-9.13,3.73a1.76,1.76,0,1,0,1.34,3.26l9.13-3.72-3.49,8.28a1.77,1.77,0,0,0,3.26,1.37l4.85-11.53,9.27-3.78a10.52,10.52,0,0,0,3.32,3.35l-9.54,22.7a1.78,1.78,0,1,0,3.25,1.37L966,99.51a10.59,10.59,0,0,0,4.72,0l3.78,9.28-4.85,11.52a1.76,1.76,0,1,0,3.25,1.37l3.48-8.27,3.73,9.13a1.76,1.76,0,0,0,3.26-1.34l-3.72-9.13,8.28,3.49a1.77,1.77,0,0,0,1.37-3.26l-11.53-4.85L974,98.21a10.62,10.62,0,0,0,3.35-3.32l22.73,9.56a1.78,1.78,0,1,0,1.37-3.26l-22.73-9.56a10.59,10.59,0,0,0,0-4.72l9.28-3.78L999.57,88a1.76,1.76,0,0,0,1.37-3.25l-8.27-3.48,9.13-3.73a1.77,1.77,0,0,0-1.34-3.27Zm-29.35,21.5a7.06,7.06,0,1,1,3.87-9.2A7.07,7.07,0,0,1,971.11,95.75Z"/><path class="cls-1" d="M615.54,51.23A40.12,40.12,0,0,0,598.66,54a27.48,27.48,0,0,0-5.37-2.9,68.54,68.54,0,0,0,32.49-74.31,1.76,1.76,0,0,0-2.11-1.33,1.77,1.77,0,0,0-1.33,2.11,64.28,64.28,0,0,1-.37,30C609.8,6,604.23,2.46,596.82-8.19a1.78,1.78,0,0,0-2.46-.44,1.78,1.78,0,0,0-.44,2.46C601.84,5.2,608.12,9.27,621,11a65.35,65.35,0,0,1-6,13.5c-10.08-.48-23.46-4-31.38-17.68a1.77,1.77,0,1,0-3.06,1.76c6.55,11.31,18,18.1,32.31,19.31a64.89,64.89,0,0,1-24.42,21.75c-5.08-1.07-11-1-18.24.67h-.07c-7,1.59-12.32,4.06-16.4,7.25a64.91,64.91,0,0,1-31.75-9.15c12.44-7.27,19.83-18.3,20.88-31.32a1.77,1.77,0,0,0-3.52-.29c-1.27,15.76-11.84,24.69-20.74,29.46a65.23,65.23,0,0,1-11.17-9.64c10.88-7.12,14.81-13.5,17.07-27.17a1.77,1.77,0,0,0-3.49-.57C519,21.72,515.46,27.32,505.15,34A64.49,64.49,0,0,1,491.92,7a1.76,1.76,0,1,0-3.44.77A68.53,68.53,0,0,0,550.19,61a27.86,27.86,0,0,0-3.51,4.87,40.12,40.12,0,0,0-17,4.79,30.22,30.22,0,0,0-12.15,11.9c-2.33,4.4-2.81,8.69-1.27,11.47,1.4,2.53,4.34,3.28,9,2.23,4-.89,9.19-3.12,15.74-6.65-.31,5.66-.27,11.73-.24,18.1,0,3.11,0,6.32,0,9.61-.07,14.56,4.23,25.44,12.8,32.33,9.38,7.54,23.7,9.63,40.32,5.89l.07,0c16.62-3.76,28.64-11.81,33.88-22.65,4.77-9.9,4-21.57-2.34-34.69-1.79-3.71-3.45-7.33-5.06-10.82-2.27-5-4.46-9.72-6.74-14.08,7.29.35,12.86.1,16.77-.78,4.66-1.06,7-3,7.17-5.89.19-3.17-2.08-6.84-6.08-9.81A30.24,30.24,0,0,0,615.54,51.23Zm-74.62,34.4c-14.25,7.88-20.5,8.51-21.53,6.65-1.78-3.22,1.44-12.71,12-18.58a36.54,36.54,0,0,1,9.41-3.53,37.75,37.75,0,0,1,4.06-.67,54.23,54.23,0,0,0-3.54,15.89Zm76.38,3.16c1.61,3.51,3.27,7.14,5.08,10.89,5.84,12.1,6.62,22.74,2.34,31.62-4.76,9.86-16,17.23-31.51,20.75s-28.83,1.66-37.37-5.2c-7.69-6.17-11.55-16.12-11.48-29.55,0-3.31,0-6.52,0-9.65,0-7.35-.08-14.06.34-20.09.1-1.48.23-2.92.4-4.32a43.2,43.2,0,0,1,3.67-13.94,27.23,27.23,0,0,1,2-3.44A24.36,24.36,0,0,1,555,61.13a28.66,28.66,0,0,1,5.69-3.76A44.65,44.65,0,0,1,571,53.79a47.56,47.56,0,0,1,11.12-1.3,29.12,29.12,0,0,1,6.84.88,24.1,24.1,0,0,1,5.94,2.37A26.78,26.78,0,0,1,598.25,58a41.53,41.53,0,0,1,9.29,11.26c.72,1.19,1.43,2.43,2.12,3.72C612.2,77.68,614.64,83,617.3,88.79Zm16.88-22.44c-.13,2.12-6,4.25-22.31,3.25h-.09a52.35,52.35,0,0,0-9.9-13,36.94,36.94,0,0,1,13.45-1.8C627.41,55.49,634.4,62.69,634.18,66.35Z"/><path class="cls-1" d="M589.35,135c-11.1,2.5-21.08-1.2-22.71-8.44s5.78-14.88,16.88-17.39,21.08,1.2,22.71,8.44S600.45,132.46,589.35,135Zm-5.05-22.38c-8.87,2-15.38,8-14.22,13.16s9.63,7.77,18.49,5.77,15.38-8,14.22-13.16S593.16,110.58,584.3,112.59Z"/><path class="cls-1" d="M568.07,94.8c-3.8.85-7.67-1.92-8.64-6.2s1.34-8.44,5.14-9.3,7.67,1.92,8.63,6.19S571.86,93.94,568.07,94.8Zm-2.73-12c-1.89.42-3,2.7-2.47,5.08s2.52,4,4.42,3.52,3-2.71,2.47-5.08S567.24,82.32,565.34,82.75Z"/><path class="cls-1" d="M591.31,89.55c-3.8.85-7.67-1.92-8.64-6.19s1.34-8.45,5.14-9.31,7.67,1.92,8.63,6.2S595.1,88.69,591.31,89.55Zm-2.73-12c-1.89.43-3,2.71-2.47,5.08s2.52,4,4.42,3.52,3-2.7,2.47-5.08S590.48,77.07,588.58,77.5Z"/><path class="cls-1" d="M50.1,30.58C47.44,27.74,33.34,23.1,22,19.72c-6.48-1.94-12.78-3.64-17.72-4.81-9-2.12-10.65-1.75-11.51-1.55-2.54.59-4.26,3-5.73,8.17a59.65,59.65,0,0,0-1.91,10.35c-.32,3.59-.39,7.21,2.52,8.46,1.18.5,14.59,5,26.24,8.67,25.92,8.21,27.6,7.82,28.94,7.51A3.79,3.79,0,0,0,44,56.06c.77-.46,2.22-1.34,4.64-8.18a57.93,57.93,0,0,0,2.74-10.6C51.65,34.94,51.75,32.31,50.1,30.58ZM42.13,53l-.11,0c-3.24.76-51.28-15.25-53-16S-9.81,17.58-6.45,16.8C-1.79,15.72,44,29.28,47.55,33,49.57,35.13,44.14,51.83,42.13,53Z"/><path class="cls-1" d="M48.32,158.94c-4.73-9.86-7.93-16.08-10-20.19-2.69-5.24-3.69-7.19-4.29-9.52-5.14-20.14,2.94-56.93,4.62-64.1l0-.14a3.54,3.54,0,0,0-2.57-4.22C25.38,58.05,3.19,50.84-8.23,47l-.08,0-.62-.19a3.59,3.59,0,0,0-1.84-.06,3.53,3.53,0,0,0-1.32.61,3.57,3.57,0,0,0-1.41,2.88c.34,23.24-4.09,40.34-7.91,53.23l-1.05,3.48c-.07.23-.13.46-.2.68-3,9.79-5.1,16.87-4,23.12,1.83,10,6.79,14.39,11.58,18.6l.78.69c.86.76,1.74,1.55,2.6,2.4a34.59,34.59,0,0,1,5.08,6.1l2,3.13c4.38,6.86,7.22,11.29,13,15.31l.06.1,0,0a55.25,55.25,0,0,0,8.71,4.78,24,24,0,0,0,15.46,1.7,22.47,22.47,0,0,0,15.1-11.71A14.75,14.75,0,0,0,48.35,159Zm-60.61-11.89c-4.85-4.27-9.2-7.87-10.86-17-1-5.32,1-12.06,3.74-21A29.45,29.45,0,0,1-9,125.5,29.47,29.47,0,0,1-12.29,147.05Zm8.67,9.55a38.71,38.71,0,0,0-6-7.13,33,33,0,0,0,4.06-24.76,33,33,0,0,0-12.76-19.26c3.95-13.21,8.71-30.9,8.36-55.29l.62.19C1.76,54.08,24.34,61.43,35.2,64.19c-.55,2.39-10.33,43.58-4.63,65.91,1.07,4.21,3.17,7.12,10.8,22.61L8.69,172.78C4,169,1.45,164.43-3.62,156.6Zm35.5,23.48a20.45,20.45,0,0,1-13.21-1.49A57,57,0,0,1,11.81,175l31.12-19.11c.69,1.43,1.43,3,2.21,4.58C48.47,167.72,42,177.74,31.88,180.08Z"/><path class="cls-1" d="M276,558.42c-2.3-3.51-4.32-6.89-6.11-10.16-.63-1.15-1.23-2.28-1.8-3.41C257.27,523.69,256.59,507.7,258,495c.44-4,1.08-7.72,1.68-11.15,1.21-6.87,2.25-12.8.88-18a25,25,0,0,0-1.11-3.23c-3.41-8.07-10.65-12.84-16.88-15.57l1.13-5.39A10,10,0,0,0,224,437.51l-1.13,5.39c-7.66,0-17.54,1.86-24,10-.25.31-.47.62-.7.94-2.85,4.14-4.19,9.63-5.72,15.92-.19.77-.38,1.55-.57,2.35-3.44,13.88-8.78,31.69-32,50.54-1,.81-2,1.62-3.09,2.44-2.82,2.15-5.87,4.31-9.18,6.48-3.15,2.06-3.47,4.29-3.19,5.8.63,3.31,4.76,8.66,33.23,16.92,15.25,4.43,30.45,7.59,30.59,7.62l2.52.51c5,1,16.62,3.21,28.57,4.77,29.4,3.83,35.32.58,37.22-2.19C277.46,563.75,278.06,561.57,276,558.42Zm-80.08-87.81c1.61-6.64,2.89-11.88,5.75-15.5,6-7.54,15.6-8.87,22.62-8.65a1.77,1.77,0,0,0,1.78-1.41l1.43-6.82a6.54,6.54,0,0,1,7.63-5.05l.07,0a6.52,6.52,0,0,1,5,7.7l-1.43,6.82a1.78,1.78,0,0,0,1.07,2c6.52,2.61,14.8,7.68,17.26,17,1.17,4.46.24,9.77-.94,16.5-2.42,13.75-5.87,33.5,8,61.71-12.75-.11-33-2.94-52-6.95-18.08-3.74-36.81-8.93-48.68-13.75C187.82,503.83,192.61,484.24,195.92,470.61ZM273.68,563c-3.4,5-35.56,1.6-64.68-4.55s-59.95-15.81-61.07-21.73c-.12-.66.43-1.4,1.65-2.2,4-2.59,7.55-5.19,10.83-7.78a177.94,177.94,0,0,0,20.5,7c15.25,4.43,30.45,7.59,30.59,7.62l2.52.51c5,1,16.62,3.21,28.57,4.77A166,166,0,0,0,266,548.45c2,3.82,4.35,7.78,7.05,11.9C273.84,561.57,274.05,562.47,273.68,563Z"/><path class="cls-1" d="M485.06,487.47l-8.76,1.93,5.31-8.3a1.77,1.77,0,0,0-3-1.91l-5.3,8.31-1.93-8.76a1.77,1.77,0,1,0-3.45.75l2.69,12.22-9.7,15.16a52.1,52.1,0,0,0-34.34-21.71A27.7,27.7,0,0,0,419,446.72l6.23-1.37a1.77,1.77,0,1,0-.76-3.45L417,443.54a4.34,4.34,0,0,0-.09-1.07l-5.31-24.13a4.42,4.42,0,0,0-5.26-3.36l-28.44,6.26a4.42,4.42,0,0,0-3.36,5.26l5.31,24.13a4.36,4.36,0,0,0,.37,1l-7.46,1.64a1.77,1.77,0,0,0,.75,3.45l6-1.33.23,0A27.7,27.7,0,0,0,389,493.44a52.14,52.14,0,0,0-22.06,34.14l-15.18-9.7-2.69-12.22a1.77,1.77,0,0,0-3.45.76l1.93,8.77-8.31-5.31a1.76,1.76,0,0,0-1.9,3l8.31,5.31-8.77,1.93a1.77,1.77,0,0,0,.76,3.45l12.21-2.69,16.56,10.58A52.06,52.06,0,1,0,463,510.14l10.57-16.53,12.21-2.69a1.77,1.77,0,1,0-.76-3.45ZM378,425.74a.87.87,0,0,1,.67-1.05l28.44-6.26a.87.87,0,0,1,1,.67l5.31,24.13a.89.89,0,0,1-.67,1l-6.58,1.45-15.73,3.46-6.13,1.35a.88.88,0,0,1-.83-.27.92.92,0,0,1-.22-.4Zm1.8,49.24a24.19,24.19,0,0,1,5.07-20.75l28.79-6.34.23-.05a24.25,24.25,0,0,1,8.06,37.68l-.44.49A24.18,24.18,0,0,1,394,492.07l-.6-.26A24.22,24.22,0,0,1,379.79,475Zm48.83,109a48.54,48.54,0,0,1-36.05-88.63,27.71,27.71,0,0,0,31.55-6.94,48.53,48.53,0,0,1,4.5,95.57Z"/><path class="cls-1" d="M406.94,485.48A15.08,15.08,0,0,1,391.89,480a1.76,1.76,0,0,1,2.78-2.17,11.45,11.45,0,0,0,20.2-4.44,1.77,1.77,0,0,1,3.44.8A15.09,15.09,0,0,1,406.94,485.48Z"/><path class="cls-1" d="M419.72,543.57a6.17,6.17,0,1,1,4.71-7.36A6.18,6.18,0,0,1,419.72,543.57Zm-1.9-8.62a2.65,2.65,0,1,0,3.16,2A2.65,2.65,0,0,0,417.82,535Z"/><path class="cls-1" d="M415.45,524.18a6.17,6.17,0,1,1,4.71-7.36A6.19,6.19,0,0,1,415.45,524.18Zm-1.89-8.62a2.65,2.65,0,1,0,3.15,2A2.66,2.66,0,0,0,413.56,515.56Z"/><path class="cls-1" d="M424,563a6.17,6.17,0,1,1,4.7-7.36A6.18,6.18,0,0,1,424,563Zm-1.9-8.62a2.65,2.65,0,1,0,3.16,2A2.65,2.65,0,0,0,422.09,554.34Z"/><path class="cls-1" d="M393.36,466.65h0a1.77,1.77,0,0,1,1.35-2.1l1.72-.38a1.76,1.76,0,0,1,2.1,1.34h0a1.77,1.77,0,0,1-1.34,2.11l-1.73.37A1.77,1.77,0,0,1,393.36,466.65Z"/><path class="cls-1" d="M406.18,463.83h0a1.76,1.76,0,0,1,1.34-2.1l1.73-.38a1.76,1.76,0,0,1,2.1,1.34h0a1.76,1.76,0,0,1-1.34,2.1l-1.73.38A1.76,1.76,0,0,1,406.18,463.83Z"/><path class="cls-1" d="M832.48,110.42a1.76,1.76,0,0,0-.79-1.52,91.24,91.24,0,0,1-24.53-24.36,100.88,100.88,0,0,0,21.08-9.72,1.77,1.77,0,0,0,.07-3c-10.7-7.16-19.51-17.51-26.22-30.79a60.77,60.77,0,0,0,14-7.1,1.75,1.75,0,0,0,0-2.89c-6.56-4.73-11.86-11.8-15.76-21a36.48,36.48,0,0,0,8.18-4.93,1.76,1.76,0,0,0,0-2.75c-6-4.88-9.77-13.83-11.22-26.62A1.77,1.77,0,0,0,796-25.79a1.77,1.77,0,0,0-1.89.82c-6.63,11-13.78,17.62-21.25,19.56a1.79,1.79,0,0,0-1.17,1,1.78,1.78,0,0,0,0,1.53A36.24,36.24,0,0,0,777.1,5C769.72,11.76,762,16,754,17.57a1.75,1.75,0,0,0-1.16,2.65,60.55,60.55,0,0,0,9.79,12.27c-11.61,9.3-23.93,15.06-36.63,17.14a1.75,1.75,0,0,0-1.17,2.73A100.22,100.22,0,0,0,740,70a91.28,91.28,0,0,1-32.42,12,1.76,1.76,0,0,0-1.17,2.75c15.48,22,34.23,35.68,54.91,40.67l-4.53,20.86a1.77,1.77,0,1,0,3.45.75l4.53-20.86c20.88,4,43.6-.61,66.83-14.22A1.79,1.79,0,0,0,832.48,110.42Zm-68.67,12h0c-20.06-4.37-37.82-17-52.82-37.42a96.85,96.85,0,0,0,33-13.23,1.77,1.77,0,0,0,.22-2.84,94.53,94.53,0,0,1-14.77-16.27c12.93-2.64,25.41-8.92,37.15-18.69a1.76,1.76,0,0,0,.63-1.33,1.74,1.74,0,0,0-.6-1.35,54.43,54.43,0,0,1-9.31-10.79c8.19-2.16,16.13-6.91,23.62-14.14a1.78,1.78,0,0,0,0-2.55,29.5,29.5,0,0,1-5-6.42c6.6-2.41,12.86-7.92,18.66-16.44,1.74,10.16,5.14,17.77,10.15,22.7a30,30,0,0,1-7.19,3.78,1.77,1.77,0,0,0-1.06,2.31c3.82,9.69,9.07,17.3,15.62,22.67a54.11,54.11,0,0,1-12.94,6A1.77,1.77,0,0,0,798,40.77c6.62,13.75,15.38,24.64,26,32.41a94.19,94.19,0,0,1-20.2,8.68,1.76,1.76,0,0,0-1,2.67,97.2,97.2,0,0,0,24.5,25.72C805.25,122.65,783.88,126.73,763.81,122.38Z"/><path class="cls-1" d="M439.31,20,400,17.9c5.13-1.42,9.93-3.53,12.62-5.94a13,13,0,0,0,1-18.29,14.54,14.54,0,0,0-18.88-2A51.47,51.47,0,0,0,383.39,3.13c2.36-9.25,7.8-17.56,15.23-22.56a1.76,1.76,0,0,0,.48-2.45,1.76,1.76,0,0,0-2.45-.48A41.63,41.63,0,0,0,381.2-1.69c-1.6-6.2-4.91-11.86-10.06-17.36a1.76,1.76,0,0,0-2.49-.08,1.76,1.76,0,0,0-.08,2.49c5.84,6.24,9.08,12.53,10,19.75A51.27,51.27,0,0,0,368.41-9.73a14.51,14.51,0,0,0-19-.09,13,13,0,0,0-1,18.29c2.41,2.69,7,5.31,11.91,7.28L321,13.61a4.3,4.3,0,0,0-4.52,4.05l-1.4,25.79A4.29,4.29,0,0,0,319.13,48l2.31.13-5.27,97a4.41,4.41,0,0,0,4.17,4.64l104.87,5.7a4.42,4.42,0,0,0,4.65-4.17l5.27-97,2.31.13a4.29,4.29,0,0,0,4.52-4l1.4-25.8A4.28,4.28,0,0,0,439.31,20ZM396.72-5.41a11.16,11.16,0,0,1,6.94-1.91A10.53,10.53,0,0,1,411-4a9.44,9.44,0,0,1-.72,13.31c-5.6,5-22,8.33-27,6.3-.58-.24-.88-.49-.9-.76C381.94,8.4,391.49-1.77,396.72-5.41ZM351.79-7.19a10.55,10.55,0,0,1,7.61-2.54,11.13,11.13,0,0,1,6.7,2.66c4.8,4.18,13.19,15.33,12.08,21.71,0,.27-.37.49-1,.66-5.15,1.48-21.12-3.58-26.14-9.18A9.44,9.44,0,0,1,351.79-7.19ZM371.21,149l-50.68-2.75a.88.88,0,0,1-.83-.93l5.27-97,51.55,2.8Zm5.51-101.44-51.56-2.8-3.52-.2-2.32-.12a.76.76,0,0,1-.72-.8L320,17.85a.76.76,0,0,1,.8-.72l57.39,3.12Zm49.61,103.55a.87.87,0,0,1-.92.83l-50.68-2.75,5.32-97.92,51.56,2.8Zm12.11-101a.78.78,0,0,1-.81.72l-2.31-.13-3.52-.19-51.56-2.8,1.48-27.32,57.4,3.12a.76.76,0,0,1,.72.8Z"/><path class="cls-1" d="M751.44,586.85a3.95,3.95,0,0,1-4.5-4l1.14-55.32a.4.4,0,0,0-.17-.34L703,494.9a3.93,3.93,0,0,1-1.58-3.85,3.89,3.89,0,0,1,2.74-3.12l53-16a.41.41,0,0,0,.27-.27L774.23,419a3.92,3.92,0,0,1,3.17-2.7h0a3.9,3.9,0,0,1,3.8,1.65l31.59,45.42a.41.41,0,0,0,.34.18l55.33-.27a3.94,3.94,0,0,1,3.16,6.33L838.2,513.63a.43.43,0,0,0-.07.38l17.36,52.54a3.94,3.94,0,0,1-5,5l-52.26-18.18a.37.37,0,0,0-.37,0l-44.61,32.74A3.93,3.93,0,0,1,751.44,586.85Zm26.49-167.11h0a.38.38,0,0,0-.33.28l-16.84,52.71a4,4,0,0,1-2.62,2.57l-53,16a.42.42,0,0,0-.12.73L750,524.34a3.9,3.9,0,0,1,1.64,3.28l-1.14,55.31a.38.38,0,0,0,.22.38.4.4,0,0,0,.43,0l44.61-32.75a3.94,3.94,0,0,1,3.62-.54l52.26,18.18a.38.38,0,0,0,.42-.09.39.39,0,0,0,.11-.42l-17.36-52.54a4,4,0,0,1,.61-3.62l33.44-44.08h0a.39.39,0,0,0,0-.43.4.4,0,0,0-.37-.23l-55.33.27a3.9,3.9,0,0,1-3.25-1.69l-31.59-45.43A.39.39,0,0,0,777.93,419.74Z"/><path class="cls-1" d="M767,554.15a1.68,1.68,0,0,1-1.07-.18,1.76,1.76,0,0,1-.95-1.6l.51-24.47h0a17.83,17.83,0,0,0-7.41-14.83l-19.87-14.29a1.76,1.76,0,0,1,.52-3.12l23.42-7.08A17.82,17.82,0,0,0,774,476.93l7.44-23.29a1.78,1.78,0,0,1,1.42-1.21h0a1.75,1.75,0,0,1,1.7.74l14,20.09a17.81,17.81,0,0,0,14.69,7.65l24.5-.12a1.74,1.74,0,0,1,1.58,1,1.76,1.76,0,0,1-.17,1.86l-14.79,19.5a17.81,17.81,0,0,0-2.72,16.35l7.67,23.24a1.76,1.76,0,0,1-2.25,2.22l-23.12-8a18.27,18.27,0,0,0-8.5-.8,18,18,0,0,0-7.9,3.26l-19.72,14.48A1.81,1.81,0,0,1,767,554.15ZM769,528l-.44,20.9,16.85-12.36a21.44,21.44,0,0,1,9.46-3.91,21.76,21.76,0,0,1,10.19,1l19.73,6.86-6.55-19.84a21.32,21.32,0,0,1,3.26-19.6l12.63-16.64-20.92.1a21.33,21.33,0,0,1-17.61-9.17l-11.93-17.15L777.34,478a21.34,21.34,0,0,1-14.16,14l-20,6,17,12.21A21.36,21.36,0,0,1,769,528Z"/><path class="cls-1" d="M591.83,425.93a41.52,41.52,0,0,0-25.26,52.94l35.52,100.36a15,15,0,0,0,28.28-10L594.85,468.86a11.47,11.47,0,1,1,21.63-7.66l5.89,16.64a15,15,0,1,0,28.28-10l-5.89-16.64A41.51,41.51,0,0,0,591.83,425.93Zm-8.63,89.34,29.28,14,10.11,28.57-29.28-14Zm-1.67-4.71L571.42,482l29.28,14,10.11,28.57Zm10-40.53L599,491.26l-29.27-14a37.71,37.71,0,0,1-.21-23.84l21.2,10.11A14.74,14.74,0,0,0,591.53,470Zm28.53,115a11.48,11.48,0,0,1-14.64-7L595,548.54l29.29,14,2.78,7.88A11.49,11.49,0,0,1,620.06,585ZM591.54,460l-20.74-9.9A37.8,37.8,0,0,1,593,429.26a36.65,36.65,0,0,1,4.94-1.37l4,22.62c-.43.11-.85.23-1.28.38A15,15,0,0,0,591.54,460Zm13.9-10-4-22.71a38.08,38.08,0,0,1,29.42,9.33l-10.13,25.93-.91-2.57A15,15,0,0,0,605.44,450Zm41.88,19a11.47,11.47,0,1,1-21.62,7.65l-3.18-9,11.07-28.33a37.82,37.82,0,0,1,7.85,13Z"/><path class="cls-1" d="M349.05,236.3h0a11.74,11.74,0,0,0-7.75-4.68,11.6,11.6,0,0,0-6,.7,149.08,149.08,0,0,1-16.49-20.88c-6.84-10-11.77-17.26-25.88-22.62-16.63-6.59-36.2-3.85-49.85,7S222.88,224.32,224.5,246c-1.06,4.11-1.79,9.65,0,14.31a12.71,12.71,0,0,0,7.13,7.25,1.89,1.89,0,0,0,1.64-.12,1.82,1.82,0,0,0,.85-1.41c.06-.86,1.9-21.15,35-30.33.29-.07,30.82-8,45.78,9.53a1.77,1.77,0,0,0,1.52.63,1.8,1.8,0,0,0,1.39-.89,12.56,12.56,0,0,0,1.24-3.46,32.74,32.74,0,0,0,9.16,4.76A11.82,11.82,0,0,0,339,255.11a12.28,12.28,0,0,0,3.58-.35,11.74,11.74,0,0,0,4.07-1.93A11.87,11.87,0,0,0,349.05,236.3Zm-33.47,4.39c-6.85-6.63-16.82-10.25-29-10.49a72.6,72.6,0,0,0-18.36,2c-28.91,8-35.62,24.43-37.16,30.89a8.82,8.82,0,0,1-3.16-4.11c-2.72-7,1.84-17.28,1.94-17.51l.35-.71c.13-.29.27-.57.29-.61,10.68-17.54,24.95-26.72,42.43-27.27a55.23,55.23,0,0,1,23.38,4.49l0,0c10.35,4.68,16.88,10.4,18.89,16.54A12.9,12.9,0,0,1,315.58,240.69Zm3.82-3.51a16.55,16.55,0,0,0-.78-4.24c-2.32-7.27-9.33-13.59-20.83-18.79a57.7,57.7,0,0,0-24.88-4.85c-12.8.37-30.92,5.6-45,28.2.45-16.66,6.42-30.18,17.41-38.9,12.67-10,30.84-12.58,46.31-6.45h0c13.07,5,17.5,11.47,24.2,21.3a154.68,154.68,0,0,0,16.28,20.74,11.81,11.81,0,0,0-4.22,8.12A30.07,30.07,0,0,1,319.4,237.18ZM344.48,250A8.17,8.17,0,0,1,333,248.2a8.26,8.26,0,0,1,1.69-11.53,7.91,7.91,0,0,1,2.84-1.35,8,8,0,0,1,3.2-.16,8.1,8.1,0,0,1,5.39,3.26A8.28,8.28,0,0,1,344.48,250Z"/><path class="cls-1" d="M267.93,255.92a1.38,1.38,0,0,1-1.21-.34,8.35,8.35,0,0,0-13.64,3.48,1.38,1.38,0,0,1-.9.87,1,1,0,0,1-.72-.07,1.37,1.37,0,0,1-.69-.78,1.9,1.9,0,0,1,0-1.31,11.47,11.47,0,0,1,5.57-6.28,11.08,11.08,0,0,1,1.88-.68,10.29,10.29,0,0,1,5.17,0,11.94,11.94,0,0,1,4.71,2.51,1.9,1.9,0,0,1,.64,1.15,1.33,1.33,0,0,1-.22,1A1,1,0,0,1,267.93,255.92Z"/><path class="cls-1" d="M295.09,249a1.38,1.38,0,0,1-1.21-.34,8.35,8.35,0,0,0-13.64,3.48,1.41,1.41,0,0,1-.9.87,1.06,1.06,0,0,1-.72-.07,1.4,1.4,0,0,1-.69-.78,1.9,1.9,0,0,1,0-1.31,11.44,11.44,0,0,1,5.57-6.28,9.59,9.59,0,0,1,1.88-.68,10.41,10.41,0,0,1,5.17,0,12,12,0,0,1,4.71,2.52,1.88,1.88,0,0,1,.64,1.15,1.33,1.33,0,0,1-.22,1A1.09,1.09,0,0,1,295.09,249Z"/><path class="cls-1" d="M320.37,262a1.79,1.79,0,0,0-3.11.32c-2.23,5.13-8.6,4.77-18.81,3.77-3.43-.34-7.08-.7-10.79-.76-1.9-4.51-7.57-6.94-13.32-5.47s-9.62,6.38-9.06,11.28c-3.17,1.88-6.13,4-8.9,6-8,5.72-13.06,9.07-17.51,5.94a1.79,1.79,0,0,0-2.82,1.56c0,.86,0,2.09.06,3.66.12,15.36.43,56.17,33.3,66.12,4.17,1.26,7.81,2.14,11,2.91,5.75,1.38,9.91,2.38,11,4.29.48.81.49,2,0,3.69a1.81,1.81,0,0,0,.52,1.81,1.78,1.78,0,0,0,1.65.41l.2-.06c1.37-.53,33.69-13.24,42.55-42.58C342.07,306.11,336.68,285,320.37,262Zm-45.14,1.33c3.35-.85,6.63.06,8.32,2.08a5,5,0,0,1,1,2,4.76,4.76,0,0,1,.12,1.55c-.19,2.84-2.76,5.56-6.4,6.48s-7.16-.22-8.7-2.58a5.13,5.13,0,0,1-.66-1.47,5.06,5.06,0,0,1,0-2.19C269.41,266.6,271.86,264.21,275.23,263.35ZM333,323.85c-6.85,22.74-29.54,35.24-37.56,39a6.49,6.49,0,0,0-.86-3.07c-1.89-3.22-6.42-4.31-13.28-6-3.17-.76-6.75-1.62-10.82-2.85-30.35-9.19-30.64-48.08-30.75-62.72,0-.28,0-.55,0-.81,5.92,1.84,12.2-2.67,18.78-7.41,2.52-1.81,5.2-3.73,8-5.45,2.32,3.74,7.48,5.63,12.71,4.3s8.9-5.53,9.1-10c3.35.09,6.67.41,9.8.72,8.56.85,16.72,1.65,20.9-3.35C333.41,287.43,338.12,306.77,333,323.85Z"/><path class="cls-1" d="M203.89,396.85A12.85,12.85,0,1,1,216.73,384,12.86,12.86,0,0,1,203.89,396.85Zm0-22.14a9.3,9.3,0,1,0,9.3,9.3A9.31,9.31,0,0,0,203.89,374.71Z"/><path class="cls-1" d="M382.53,375.73a12.85,12.85,0,1,1,12.85-12.84A12.85,12.85,0,0,1,382.53,375.73Zm0-22.15a9.31,9.31,0,1,0,9.31,9.31A9.32,9.32,0,0,0,382.53,353.58Z"/><path class="cls-1" d="M33.87,397.12H26.34v-7.53a1.77,1.77,0,1,0-3.54,0v7.53H15.27a1.77,1.77,0,1,0,0,3.54H22.8v7.53a1.77,1.77,0,0,0,3.54,0v-7.53h7.53a1.77,1.77,0,0,0,0-3.54Z"/><path class="cls-1" d="M872.51-1H865V-8.53a1.77,1.77,0,0,0-1.77-1.77,1.77,1.77,0,0,0-1.77,1.77V-1h-7.53a1.77,1.77,0,1,0,0,3.54h7.53v7.53a1.77,1.77,0,1,0,3.54,0V2.54h7.53A1.78,1.78,0,0,0,874.29.77,1.78,1.78,0,0,0,872.51-1Z"/><path class="cls-1" d="M886.58,413.11h-7.53v-7.53a1.77,1.77,0,1,0-3.54,0v7.53H868a1.77,1.77,0,0,0,0,3.54h7.53v7.53a1.77,1.77,0,1,0,3.54,0v-7.53h7.53a1.77,1.77,0,0,0,0-3.54Z"/><path class="cls-1" d="M531.91,572.42a12.85,12.85,0,1,1,12.84-12.84A12.86,12.86,0,0,1,531.91,572.42Zm0-22.15a9.31,9.31,0,1,0,9.3,9.31A9.33,9.33,0,0,0,531.91,550.27Z"/><path class="cls-1" d="M691.28,432.11a12.85,12.85,0,1,1,12.85-12.85A12.86,12.86,0,0,1,691.28,432.11Zm0-22.15a9.31,9.31,0,1,0,9.3,9.3A9.31,9.31,0,0,0,691.28,410Z"/><path class="cls-1" d="M183.15,198.73h-7.53V191.2a1.77,1.77,0,1,0-3.54,0v7.53h-7.53a1.77,1.77,0,1,0,0,3.54h7.53v7.53a1.77,1.77,0,0,0,3.54,0v-7.53h7.53a1.77,1.77,0,0,0,0-3.54Z"/><path class="cls-1" d="M494.11,137.17h-7.53v-7.53a1.77,1.77,0,0,0-3.54,0v7.53h-7.53a1.78,1.78,0,1,0,0,3.55H483v7.53a1.77,1.77,0,1,0,3.54,0v-7.53h7.53a1.78,1.78,0,0,0,0-3.55Z"/><path class="cls-1" d="M86.3,1.82A12.86,12.86,0,0,1,73.45-11,12.86,12.86,0,0,1,86.3-23.87,12.85,12.85,0,0,1,99.14-11,12.86,12.86,0,0,1,86.3,1.82Zm0-22.15A9.32,9.32,0,0,0,77-11,9.33,9.33,0,0,0,86.3-1.72,9.32,9.32,0,0,0,95.6-11,9.32,9.32,0,0,0,86.3-20.33Z"/><path class="cls-1" d="M139.6,451h-7.53v-7.53a1.77,1.77,0,1,0-3.54,0V451H121a1.78,1.78,0,0,0,0,3.55h7.53v7.53a1.77,1.77,0,1,0,3.54,0v-7.53h7.53a1.78,1.78,0,0,0,0-3.55Z"/><path class="cls-1" d="M848.57,186.06a12.85,12.85,0,1,1,12.84-12.84A12.86,12.86,0,0,1,848.57,186.06Zm0-22.15a9.31,9.31,0,1,0,9.3,9.31A9.32,9.32,0,0,0,848.57,163.91Z"/><path class="cls-1" d="M633.57,350.26H626v-7.53a1.77,1.77,0,1,0-3.54,0v7.53H615a1.78,1.78,0,0,0,0,3.55h7.53v7.53a1.77,1.77,0,0,0,3.54,0v-7.53h7.53a1.78,1.78,0,1,0,0-3.55Z"/><path class="cls-1" d="M30.68,254.5a12.85,12.85,0,1,1,12.85-12.85A12.86,12.86,0,0,1,30.68,254.5Zm0-22.15a9.3,9.3,0,1,0,9.31,9.3A9.31,9.31,0,0,0,30.68,232.35Z"/><path class="cls-1" d="M687.74,552.51h-7.53V545a1.78,1.78,0,0,0-3.55,0v7.53h-7.53a1.77,1.77,0,1,0,0,3.54h7.53v7.53a1.78,1.78,0,1,0,3.55,0v-7.53h7.53a1.77,1.77,0,0,0,0-3.54Z"/><path class="cls-1" d="M397.5,208.44H390v-7.53a1.78,1.78,0,0,0-3.55,0v7.53h-7.53a1.78,1.78,0,0,0,0,3.55h7.53v7.53a1.78,1.78,0,0,0,3.55,0V212h7.53a1.78,1.78,0,0,0,0-3.55Z"/><path class="cls-1" d="M69.5,450.09a8.76,8.76,0,0,0-7.81.1l-.15.08L23.45,480.1a14,14,0,0,0-13-4.08l-14,3A14,14,0,0,0-14,488.46l-47.67-12-.34-.05a8.77,8.77,0,0,0-7.18,3.07A8.8,8.8,0,0,0-71.17,487l2,9.59h0l9.75,46.07a8.76,8.76,0,0,0,4.82,6.13,8.69,8.69,0,0,0,5.6.68,8.88,8.88,0,0,0,2.28-.81L-9,527.19c-3.62,9.92-9,17.89-16,23.49-8.57,6.83-16.62,7.83-16.69,7.84a1.77,1.77,0,0,0-1.53,1.35,1.75,1.75,0,0,0,.76,1.88l16.4,10.68-7.89,17a1.76,1.76,0,0,0,.38,2,1.78,1.78,0,0,0,1.58.45,2,2,0,0,0,.46-.17,94.4,94.4,0,0,0,25.3-21c8.1-9.5,16.63-23.7,18-42.22l-3.54.75C7,543.34,1.29,556.43-8.88,568.4a95.24,95.24,0,0,1-19.46,17.24l6.09-13.11a1.76,1.76,0,0,0-.64-2.22l-14.2-9.25A43.07,43.07,0,0,0-23,553.59c9.21-7.26,14.74-17.24,18.05-27.18a14,14,0,0,0,12.06,3.14l14-3a13.94,13.94,0,0,0,9.5-7.2C40.42,530,50.27,534.6,57.72,536.51a43.14,43.14,0,0,0,15.89,1.14l-9.24,14.2a1.76,1.76,0,0,0,.31,2.29l10.88,9.54a95.49,95.49,0,0,1-24.67-7.85C36.69,549,26.14,539.33,19.36,527l-3.54.75c8.74,16.37,22.29,25.91,33.54,31.32A94.78,94.78,0,0,0,81,568a2,2,0,0,0,.48,0,1.74,1.74,0,0,0,1.26-1,1.76,1.76,0,0,0-.47-2L68.16,552.5l10.68-16.41a1.78,1.78,0,0,0-.08-2,1.75,1.75,0,0,0-1.93-.61c-.26.08-21.5,6.37-42.49-15.24L77,522.53a9.06,9.06,0,0,0,2.33-.18,8.84,8.84,0,0,0,6.78-10.46l-9.74-46.07h0l-2-9.59A8.74,8.74,0,0,0,69.5,450.09ZM-48.36,545.55a5.24,5.24,0,0,1-4.68.06,5.26,5.26,0,0,1-2.9-3.68l-1.53-7.24,24-11.45a1.76,1.76,0,0,0,.83-2.35,1.75,1.75,0,0,0-2.35-.83l-23.2,11.08-6.93-32.76,26.34,4.56a1.83,1.83,0,0,0,.66,0,1.78,1.78,0,0,0,1.38-1.43,1.77,1.77,0,0,0-1.44-2l-27.73-4.8-1.77-8.39a5.23,5.23,0,0,1,1.16-4.54A5.24,5.24,0,0,1-63.64,480a5.58,5.58,0,0,1,1.23-.11l47.73,12.06a13.57,13.57,0,0,0,.27,3.63l4.9,23.18a14,14,0,0,0,1.43,3.86Zm68.72-22.42-14,3A10.47,10.47,0,0,1-6.06,518L-11,494.84a10.48,10.48,0,0,1,8.07-12.41l14-3a10.49,10.49,0,0,1,12.41,8.07l4.9,23.18A10.49,10.49,0,0,1,20.36,523.13Zm52.29-57.78L49.24,481a1.77,1.77,0,0,0,1.35,3.2,1.81,1.81,0,0,0,.61-.26l22.24-14.83,6.93,32.76-25.7-.74a1.77,1.77,0,1,0-.1,3.53l26.55.76,1.53,7.24A5.3,5.3,0,0,1,77.27,519L32.1,514.43a13.9,13.9,0,0,0-.21-4.44L27,486.81a13.92,13.92,0,0,0-1.44-3.87l37.89-29.68a5.31,5.31,0,0,1,7.44,3.7Z"/><path class="cls-1" d="M790.54,223.57a8.08,8.08,0,0,0-3.48-.27c-7.73.93-22.57,11.73-48.06,35a31,31,0,0,1-.91-3.6c3.15-1.86,9.47-5.76,6.73-20.77a30.85,30.85,0,0,0-1.4-6.91c4.81-3.72,7.16-8.25,6.61-12.82-1.15-9.52-14-15.25-30-13.33s-27.12,10.55-26,20.08c.55,4.57,3.9,8.41,9.46,10.88a31.46,31.46,0,0,0,.28,7c.9,15.23,8,17.52,11.47,18.58a31,31,0,0,1,0,3.72c-30.28-16.53-47.27-23.49-55-22.56a8,8,0,0,0-3.31,1.09c-1.37.72-4.37,3-3.07,8.52,1.24,5.3,6.58,13.17,11.79,13,.42,0,.79,0,1.28,1.46a29.79,29.79,0,0,1,.86,7.09c.08,1.52.15,3,.33,4.17.84,5.59,6.26,6.59,9.85,7.25a18.77,18.77,0,0,1,3.66.91c.76.33.77,3,.78,4.93,0,3.25,0,6.93,2.37,9.66,2.66,3.11,7.89,4.23,16.88,3.59-5.47,17.55-10.94,49.22-9.47,61.39,1.25,10.36,18.28,11.35,23.88,11.67a171.25,171.25,0,0,0,23.88-.6c.13,0,.27,0,.4,0h.07l.3,0,.3,0h.07a2.79,2.79,0,0,0,.4-.07,170.22,170.22,0,0,0,23.33-5.09c5.36-1.64,21.67-6.64,20.43-17-1.47-12.17-14.3-41.64-23.79-57.38,8.88-1.52,13.7-3.85,15.55-7.5,1.62-3.22.77-6.8,0-9.95-.45-1.89-1.07-4.48-.42-5a18.33,18.33,0,0,1,3.34-1.75c3.33-1.5,8.36-3.75,7.85-9.38-.12-1.23-.39-2.64-.68-4.13a29.92,29.92,0,0,1-.84-7.09c.12-1.57.47-1.64.89-1.73,5.11-1,8.43-9.95,8.37-15.39C795.49,225.41,792,223.94,790.54,223.57Zm-93-3.08c-.87-7.28,9.39-14.52,22.89-16.15s25.19,3,26.07,10.25c.37,3.07-1.23,6.22-4.52,9a18.21,18.21,0,0,0-4.73-5.93c-5.42-4.39-12-4.35-15.41-3.94l-.13,0h-.29l-.11,0c-3.48.42-9.84,1.95-14.05,7.48a18.32,18.32,0,0,0-3.19,6.89C700.23,226.24,697.93,223.56,697.56,220.49Zm88.9,22.57c-6.52,1.32-2.62,11.83-2.18,16.72.42,4.61-6.36,5.36-9.82,8-4.46,3.43,1.74,11.52-.59,16.14-1.69,3.33-8.66,4.95-14.28,5.82a2.62,2.62,0,0,0-1.82,4c11.08,17.91,22.78,47.13,24,57.1,1.41,11.71-35.6,17.44-41.08,18.22v0l-.37,0-.37,0v0c-5.51.54-42.82,3.77-44.23-7.94-1.21-10,3.21-41.14,9.73-61.16a2.63,2.63,0,0,0-2.72-3.43c-5.66.49-12.82.58-15.25-2.26-3.36-3.93.74-13.26-4.4-15.53-4-1.76-10.76-.87-11.45-5.46-.73-4.84.56-16-6.09-15.72-4,.16-11.82-12.66-6.85-14.88a4.46,4.46,0,0,1,2-.67c9.52-1.14,38.21,14.11,54.07,22.8a2.64,2.64,0,0,0,3.9-2c.36-3.3.25-7.38-.34-7.94-1.84-1.75-10,.15-11-16.43-2.6-17.29,9.56-20.59,14.43-21.18h0l.24,0,.24,0h0c4.87-.59,17.47-.27,19,17.14,3,16.33-5.39,16.44-6.76,18.57-.45.69.42,4.68,1.55,7.79a2.63,2.63,0,0,0,4.27,1.05c13.35-12.21,37.59-33.84,47.11-35a4.38,4.38,0,0,1,2.09.17C794.93,228,790.34,242.27,786.46,243.06Z"/><path class="cls-1" d="M987.1,252.8l-38.51-8.34c5.29-.59,10.37-1.91,13.41-3.87a13,13,0,0,0,3.88-17.9,14.54,14.54,0,0,0-18.33-4.94,51.49,51.49,0,0,0-13,9.5c3.79-8.76,10.49-16.1,18.62-19.86a1.77,1.77,0,0,0-1.48-3.21,41.53,41.53,0,0,0-18.53,18c-.61-6.38-3-12.5-7.18-18.74a1.77,1.77,0,1,0-2.93,2c4.78,7.09,7,13.81,6.74,21.08a51.2,51.2,0,0,0-8-14.28,14.52,14.52,0,0,0-18.72-3.1A13,13,0,0,0,899.22,227c1.95,3,6,6.34,10.6,9.07l-38.51-8.35a4.29,4.29,0,0,0-5.1,3.29l-5.48,25.24a4.3,4.3,0,0,0,3.29,5.1l2.26.49-20.58,95a4.42,4.42,0,0,0,3.38,5.25L951.72,384.3a4.42,4.42,0,0,0,5.25-3.38l20.58-95,2.27.49a4.29,4.29,0,0,0,5.1-3.29l5.47-25.24A4.31,4.31,0,0,0,987.1,252.8Zm-38-31.87a11.16,11.16,0,0,1,7.16-.79,10.54,10.54,0,0,1,6.67,4.46,9.43,9.43,0,0,1-2.82,13c-6.33,4.08-23.06,4.74-27.64,1.95-.53-.33-.79-.63-.77-.89C932.31,232.23,943.34,223.7,949.08,220.93ZM905,212.05a10.59,10.59,0,0,1,7.92-1.3,11.15,11.15,0,0,1,6.18,3.69c4.09,4.89,10.6,17.22,8.49,23.35-.08.26-.44.42-1.06.5-5.32.64-20.28-6.89-24.35-13.21A9.43,9.43,0,0,1,905,212.05Zm-5.59,157.31-49.6-10.75a.89.89,0,0,1-.67-1.05l20.58-95,50.46,10.94Zm21.52-99.29-50.46-10.94-3.45-.75-2.26-.49a.77.77,0,0,1-.59-.9l5.47-25.25a.77.77,0,0,1,.91-.58l56.17,12.17Zm32.58,110.11a.88.88,0,0,1-1,.67l-49.6-10.75,20.77-95.84L974.1,285.2Zm28-97.78a.76.76,0,0,1-.91.59l-2.26-.49-3.45-.75-50.46-10.94,5.79-26.73,56.18,12.17a.77.77,0,0,1,.58.91Z"/><path class="cls-1" d="M1050,519.81h0a11.7,11.7,0,0,0-8.23-11.74,149.18,149.18,0,0,1,.23-26.61c1-12.08,1.63-20.81-6-33.84-8.83-15.55-25.8-25.67-43.23-25.79s-33.6,9.59-45.9,27.48c-3.4,2.54-7.44,6.4-9,11.17a12.61,12.61,0,0,0,1,10.11,1.77,1.77,0,0,0,.83.79,1.82,1.82,0,0,0,.52.14,1.76,1.76,0,0,0,1.54-.56c.59-.63,14.74-15.29,46.27-1.72.28.13,29.05,13.07,29.71,36.12a1.79,1.79,0,0,0,2.43,1.62,12.56,12.56,0,0,0,3.15-1.92,32.84,32.84,0,0,0,4.14,9.45,11.77,11.77,0,0,0,10.22,16.66A11.86,11.86,0,0,0,1050,519.81Zm-28.84-17.55c-1.18-9.46-6.69-18.52-16.06-26.36A71.44,71.44,0,0,0,989.48,466c-27.55-11.87-43.07-3.29-48.31.78a8.86,8.86,0,0,1,.11-5.17c2.27-7.17,12.26-12.33,12.48-12.44l.72-.34.61-.29c19.31-7,36.19-5.18,50.15,5.34A55.18,55.18,0,0,1,1020.65,472l0,0c5.14,10.13,6.64,18.68,4.36,24.72A12.73,12.73,0,0,1,1021.11,502.26Zm5.18-.34a16.9,16.9,0,0,0,2-3.79c2.75-7.12,1.24-16.44-4.46-27.7a57.87,57.87,0,0,0-16.36-19.37c-10.2-7.73-27.6-15-52.76-6.24,10.79-12.69,23.92-19.49,37.94-19.4,16.17.1,31.93,9.52,40.14,24v0c7.07,12.06,6.46,19.9,5.52,31.76a153.47,153.47,0,0,0-.3,26.37,11.75,11.75,0,0,0-8.39,3.69A30.08,30.08,0,0,1,1026.29,501.92Zm11.55,25.67a8.18,8.18,0,0,1-7.82-8.53,8.06,8.06,0,0,1,.78-3.19,8.21,8.21,0,0,1,10.82-4,8.17,8.17,0,0,1,4.75,7.81A8.27,8.27,0,0,1,1037.84,527.59Z"/><path class="cls-1" d="M974.43,484.28a1.42,1.42,0,0,1-.73-1,8.34,8.34,0,0,0-12.81-5.83,1.4,1.4,0,0,1-1.25.12,1.1,1.1,0,0,1-.51-.51,1.38,1.38,0,0,1,0-1,2,2,0,0,1,.83-1,11.48,11.48,0,0,1,8.27-1.4,9.59,9.59,0,0,1,1.89.65,10.34,10.34,0,0,1,4,3.26,12.11,12.11,0,0,1,2.1,4.91,1.91,1.91,0,0,1-.22,1.29,1.41,1.41,0,0,1-.8.65A1.1,1.1,0,0,1,974.43,484.28Z"/><path class="cls-1" d="M1011.48,521.88a1.79,1.79,0,0,0-2.62-1.69c-5,2.6-9.69-1.67-17-8.85-2.47-2.42-5.09-5-7.94-7.35,1.35-4.7-1.55-10.15-6.95-12.61s-11.5-1.05-14.13,3.12c-3.65-.53-7.28-.72-10.7-.91-9.79-.52-15.86-1.11-17.36-6.34a1.79,1.79,0,0,0-3.18-.55c-.51.7-1.27,1.67-2.24,2.89-9.54,12.05-34.87,44.05-15.48,72.4,2.46,3.6,4.75,6.56,6.77,9.17,3.61,4.68,6.23,8.06,5.91,10.25-.14.94-.89,1.89-2.3,2.9a1.79,1.79,0,0,0,.3,3.09l.19.07c1.4.45,34.55,10.8,59.84-6.53C1000.77,569.85,1009.82,550,1011.48,521.88Zm-36-27.24c3.15,1.44,5.13,4.2,5.19,6.83a5,5,0,0,1-.43,2.19,4.66,4.66,0,0,1-.88,1.3c-1.93,2.08-5.63,2.6-9.05,1s-5.44-4.66-5.16-7.47a4.81,4.81,0,0,1,1.75-3.29C968.9,493.53,972.3,493.2,975.46,494.64Zm7.1,83.33c-19.58,13.44-45.1,9-53.73,6.89a6.32,6.32,0,0,0,1.25-2.93c.55-3.69-2.3-7.38-6.62-13-2-2.57-4.24-5.49-6.64-9-17.9-26.18,6.24-56.67,15.33-68.15l.5-.64c3.46,5.14,11.18,5.56,19.28,6,3.1.17,6.39.35,9.67.78-.54,4.37,2.3,9.08,7.2,11.31s10.41,1.27,13.34-2.06c2.56,2.16,4.94,4.5,7.19,6.7,6.15,6,12,11.76,18.39,10.48C1005.73,549.86,997.27,567.89,982.56,578Z"/><path class="cls-1" d="M99.79,119.5H92.26V112a1.77,1.77,0,0,0-3.54,0v7.53H81.19a1.77,1.77,0,1,0,0,3.54h7.53v7.53a1.77,1.77,0,1,0,3.54,0V123h7.53a1.77,1.77,0,0,0,0-3.54Z"/><path class="cls-1" d="M685.75,136.79h-7.53v-7.53a1.77,1.77,0,1,0-3.54,0v7.53h-7.53a1.77,1.77,0,1,0,0,3.54h7.53v7.53a1.77,1.77,0,1,0,3.54,0v-7.53h7.53a1.77,1.77,0,0,0,0-3.54Z"/><path class="cls-1" d="M323.93,426.88H316.4v-7.53a1.77,1.77,0,1,0-3.54,0v7.53h-7.53a1.77,1.77,0,1,0,0,3.54h7.53V438a1.77,1.77,0,0,0,3.54,0v-7.53h7.53a1.77,1.77,0,1,0,0-3.54Z"/><path class="cls-1" d="M525.37,426.88h-7.53v-7.53a1.78,1.78,0,1,0-3.55,0v7.53h-7.53a1.77,1.77,0,1,0,0,3.54h7.53V438a1.78,1.78,0,0,0,3.55,0v-7.53h7.53a1.77,1.77,0,0,0,0-3.54Z"/><path class="cls-1" d="M691.28,1.82A12.86,12.86,0,0,1,678.44-11a12.85,12.85,0,0,1,12.84-12.84A12.86,12.86,0,0,1,704.13-11,12.87,12.87,0,0,1,691.28,1.82Zm0-22.15A9.31,9.31,0,0,0,682-11a9.32,9.32,0,0,0,9.3,9.31,9.32,9.32,0,0,0,9.3-9.31A9.31,9.31,0,0,0,691.28-20.33Z"/><path class="cls-1" d="M613.92,216.86A12.85,12.85,0,1,1,626.76,204,12.86,12.86,0,0,1,613.92,216.86Zm0-22.15a9.31,9.31,0,1,0,9.3,9.31A9.32,9.32,0,0,0,613.92,194.71Z"/></svg>