<?xml version="1.0" encoding="UTF-8" standalone="no"?>
<svg
   xmlns:osb="http://www.openswatchbook.org/uri/2009/osb"
   xmlns:dc="http://purl.org/dc/elements/1.1/"
   xmlns:cc="http://creativecommons.org/ns#"
   xmlns:rdf="http://www.w3.org/1999/02/22-rdf-syntax-ns#"
   xmlns:svg="http://www.w3.org/2000/svg"
   xmlns="http://www.w3.org/2000/svg"
   xmlns:sodipodi="http://sodipodi.sourceforge.net/DTD/sodipodi-0.dtd"
   xmlns:inkscape="http://www.inkscape.org/namespaces/inkscape"
   id="Ebene_1"
   data-name="Ebene 1"
   viewBox="0 0 628.78 355.71"
   version="1.1"
   sodipodi:docname="c-rown-logo.grey-gold-crown.svg"
   inkscape:version="1.0.2 (e86c870879, 2021-01-15, custom)">
  <metadata
     id="metadata29">
    <rdf:RDF>
      <cc:Work
         rdf:about="">
        <dc:format>image/svg+xml</dc:format>
        <dc:type
           rdf:resource="http://purl.org/dc/dcmitype/StillImage" />
        <dc:title>Crown logo</dc:title>
      </cc:Work>
    </rdf:RDF>
  </metadata>
  <sodipodi:namedview
     pagecolor="#ffffff"
     bordercolor="#666666"
     borderopacity="1"
     objecttolerance="10"
     gridtolerance="10"
     guidetolerance="10"
     inkscape:pageopacity="0"
     inkscape:pageshadow="2"
     inkscape:window-width="1858"
     inkscape:window-height="1057"
     id="namedview27"
     showgrid="false"
     inkscape:zoom="1"
     inkscape:cx="176.08981"
     inkscape:cy="207.88218"
     inkscape:window-x="3832"
     inkscape:window-y="-8"
     inkscape:window-maximized="1"
     inkscape:current-layer="Ebene_1" />
  <defs
     id="defs4">
    <linearGradient
       id="linearGradient858"
       osb:paint="solid">
      <stop
         style="stop-color:#000000;stop-opacity:1;"
         offset="0"
         id="stop856" />
    </linearGradient>
    <style
       id="style2">.cls-1{fill:#cd9932;}.cls-2{fill:none;}.cls-3{fill:#FFF;}</style>
  </defs>
  <title
     id="title6">Crown logo</title>
  <path
     class="cls-1"
     d="M412.17,249.3q16.54,27.38,33.09,55.93-16,6.33-32.08,13.81-16.24-7-32.47-12.88Q396.42,277.15,412.17,249.3Zm137.28,33.76c-2.5-3.74-6.76-5.91-10.09-5.19A520.48,520.48,0,0,0,461.79,299c-13.94-24.72-28.08-48.77-42-72.15a9.33,9.33,0,0,0-8.07-4.56,9,9,0,0,0-7.72,4.78c-13.45,23.79-26.67,48.23-39.88,73.35A520.76,520.76,0,0,0,286,281.54c-3.57-.61-7.54,1.67-10.16,5.49-2.39,3.6-2.77,8.05-.95,10.7,17.95,25.55,35.91,52,54.34,79.76,1.59,2.43,4.5,3.5,7.83,3,0,0,76.81-12.68,154.18-2.23a7.8,7.8,0,0,0,7.74-3.23c17.39-28.29,34.8-55.25,51.78-81.31C552.68,291,552.17,286.58,549.45,283.06ZM303.87,304.43a520,520,0,0,1,87.6,25.43,584.89,584.89,0,0,0-51,29.22C328.2,340.35,315.92,322.28,303.87,304.43Zm181.71,55a455.25,455.25,0,0,0-107.3-2.89c13-7.09,25.84-13.5,38.88-19.48,35.15-16.08,70.36-28.17,104.74-35.79C509.93,320.13,497.75,339.44,485.58,359.42Z"
     transform="translate(-100.6 -222.31)"
     id="path8" />
  <path
     class="cls-1"
     d="M100.6,447s98.23-46.55,215-63.29l-17.8-25.82S167.82,388.93,100.6,447Z"
     transform="translate(-100.6 -222.31)"
     id="path10"
     style="fill:#FFF;fill-opacity:1;stroke:none;stroke-opacity:1" />
  <path
     class="cls-1"
     d="M729.38,437.86s-99.53-43.68-216.71-57l17-26.32S660.51,381.78,729.38,437.86Z"
     transform="translate(-100.6 -222.31)"
     id="path12"
     style="fill:#FFF;fill-opacity:1" />
  <path
     class="cls-2"
     d="M337,380.49s76.81-12.68,154.17-2.23"
     transform="translate(-100.6 -222.31)"
     id="path14" />
  <path
     class="cls-3"
     d="M206.69,524.1a79.25,79.25,0,0,1-49.26,39.25C124.57,572,101,555.58,101,524.13c0-29.45,23.55-62.11,56.4-70.73,22.36-5.86,40.09.94,49.57,14.88q-10.8,8.58-21.58,17.41c-5-8.52-14.73-12.64-28-9.17-18.35,4.81-31.05,22.27-31.05,39.74,0,16.9,12.7,27.85,31.05,23a42.82,42.82,0,0,0,27.67-22.91Q195.89,520.12,206.69,524.1Z"
     transform="translate(-100.6 -222.31)"
     id="path16" />
  <path
     class="cls-3"
     d="M313.41,467c0,15.33-7.56,29-19.05,36.47q11,14.68,22,29.61-16.06,1.57-32.1,3.65-8-12.16-16-24.19-9.4,1.37-18.8,2.92v26.4q-12.84,2.11-25.63,4.57V440.22q25.65-4.91,51.5-8.5C297,428.71,313.41,443.92,313.41,467Zm-63.93-7.6v32.33q11-1.82,22.1-3.4A19,19,0,0,0,287.44,470c0-8.74-7.07-15.2-15.71-14Q260.59,457.57,249.48,459.4Z"
     transform="translate(-100.6 -222.31)"
     id="path18" />
  <path
     class="cls-3"
     d="M435.69,475.4c0,30.33-25,54.28-55.49,55.35-30.83,1-55.42-21.21-55.42-51.55,0-30.11,24.58-57.36,55.42-58.39C410.71,419.74,435.69,445.28,435.69,475.4Zm-87.25,2c0,17.34,14.21,30.25,31.76,29.66,17.22-.6,31.46-14.49,31.46-31.84a30.49,30.49,0,0,0-31.46-30.48C362.65,445.3,348.44,460.21,348.44,477.37Z"
     transform="translate(-100.6 -222.31)"
     id="path20" />
  <path
     class="cls-3"
     d="M609.08,440.79Q589.19,490,569.21,540.06q-13.17-2-26.38-3.7-11.24-36-22.49-71.78-12.6,33.29-25.22,66.87-13.41-1.05-26.84-1.76-17.85-54-35.72-107.46,13.83.24,27.67.86Q471.36,458,482.5,493.21q12.22-33.63,24.45-67,14.1,1.29,28.18,3Q546,464.79,556.82,500.6q12.4-32.53,24.76-64.77Q595.35,438.13,609.08,440.79Z"
     transform="translate(-100.6 -222.31)"
     id="path22"
     style="fill:#FFF;fill-opacity:1" />
  <path
     class="cls-3"
     d="M729,578q-12.57-4.08-25.2-7.83-26.35-40.29-53-79.13v65q-12.76-3-25.61-5.76V444.05q12.84,2.71,25.61,5.77,26.64,38.76,53,79V464q12.63,3.75,25.2,7.83Z"
     transform="translate(-100.6 -222.31)"
     id="path24" />
</svg>
